<svg id="Layer_1" xmlns:rdf="http://www.w3.org/1999/02/22-rdf-syntax-ns#" xmlns="http://www.w3.org/2000/svg" xml:space="preserve" overflow="visible" height="119.52" viewBox="0 0 119.854 119.523" width="119.85" version="1.1" enable-background="new 0 0 119.854 119.523" xmlns:cc="http://creativecommons.org/ns#" xmlns:dc="http://purl.org/dc/elements/1.1/"><metadata id="metadata24"><rdf:RDF><cc:Work rdf:about=""><dc:format>image/svg+xml</dc:format><dc:type rdf:resource="http://purl.org/dc/dcmitype/StillImage"/><dc:title/></cc:Work></rdf:RDF></metadata>
<path id="path16" d="M89.456,8.457c-28.46-16.432-64.868-6.676-81.299,21.785-16.433,28.46-6.677,64.868,21.784,81.3,28.46,16.432,64.868,6.677,81.299-21.785,16.43-28.46,6.68-64.866-21.784-81.298" connector-curvature="0" fill="#FFF"/>
<path id="path18" d="M49.636,112.04c-2.463,2.244-5.157,3.954-8.364,4.489-12.344-3.694-21.918-11.565-29.959-21.397-0.26-3.283,0.315-6.357,1.728-9.229,7.473,6.491,14.327,9.273,20.758,9.52,2.367,6.036,7.225,11.616,15.837,16.616" connector-curvature="0" fill="#F17627"/>
<path id="path20" d="M37.382,11.332c0.699-3.256,1.899-6.213,4.197-8.514,12.192-4.167,24.559-3.325,36.815,0,2.12,2.519,3.438,5.358,3.959,8.514-9.854-0.938-17.049,0.781-22.424,4.318-5.438-3.537-12.633-5.256-22.547-4.318" connector-curvature="0" fill="#2D308C"/>
<path id="path22" d="M6.809,66.273c-2.882-1.671-5.325-3.724-6.802-6.621-0.201-12.883,4.417-24.385,11.365-35.018,3.051-1.238,6.157-1.617,9.32-1.137-3.936,9.083-4.522,16.457-2.816,22.663-5.045,4.079-8.9,10.394-11.067,20.113" connector-curvature="0" fill="#186AA9"/>
<path id="path24" d="M69.979,112.15c2.462,2.245,5.157,3.955,8.365,4.491,12.345-3.695,21.917-11.566,29.96-21.398,0.263-3.281-0.316-6.357-1.728-9.229-7.473,6.492-14.327,9.274-20.758,9.52-2.362,6.037-7.218,11.617-15.833,16.617" connector-curvature="0" fill="#EC2131"/>
<path id="path26" d="M113.04,65.972c2.882-1.671,5.324-3.723,6.803-6.621,0.199-12.881-4.418-24.384-11.366-35.019-3.05-1.237-6.155-1.616-9.32-1.135,3.935,9.083,4.521,16.457,2.818,22.664,5.05,4.079,8.91,10.394,11.07,20.111" connector-curvature="0" fill="#992687"/>
<path id="path28" d="M84.838,68.478l1.162-3.104,1.064,3.118,2.413,1.274-2.593,1.227-1.439,3.199-0.811-3.131-2.595-1.279,2.799-1.304" connector-curvature="0" fill="#EC2131"/>
<path id="path30" d="M79.758,79.184l1.295-2.584,0.584,2.597,2.108,1.058-2.329,1.053-1.311,2.678-0.549-2.654-2.248-1.063,2.45-1.085" connector-curvature="0" fill="#EC2131"/>
<path id="path32" d="M70.549,83.534l1.015-2.418,0.771,2.43,1.822,0.897-2.141,0.892-1.063,2.182-0.629-2.231-2.209-0.864,2.434-0.888" connector-curvature="0" fill="#EC2131"/>
<path id="path34" d="M44.504,76.163l0.879-2.537,1.11,2.551,2.24,0.931-2.274,0.997-0.82,2.593-1.115-2.535-2.415-1.079,2.395-0.921" connector-curvature="0" fill="#EC2131"/>
<path id="path36" d="M36.911,70.042l1.027-3.048,1.215,3.099,2.725,1.016-2.692,1.229-0.896,2.83-1.215-2.766-2.777-1.248,2.613-1.112" connector-curvature="0" fill="#EC2131"/>
<path id="path38" d="M30.253,61.663l1.265-3.155,1.029,3.364,2.884,1.172-2.958,1.229-1.183,3.461-1.113-3.371-2.67-1.301,2.746-1.399" connector-curvature="0" fill="#EC2131"/>
<path id="path40" d="M32.623,49.27l1.662-3.352,0.944,3.39,3.167,1.427-3.465,1.258-1.637,3.573-0.885-3.511-3.067-1.358,3.281-1.427" connector-curvature="0" fill="#EC2131"/>
<path id="path42" d="M75.572,55.373l1.162-3.601,1.442,3.641,3.164,1.427-3.216,1.381-1.263,3.635-1.321-3.635-3.253-1.419,3.285-1.429" connector-curvature="0" fill="#EC2131"/>
<path id="path44" d="M46.87,42.314l1.761-3.874,1.233,3.874,4.226,1.673-4.226,1.762-1.673,4.05-1.498-4.05-4.049-1.762,4.226-1.673" connector-curvature="0" fill="#EC2131"/>
<path id="path98" d="M49.657,31.059c2.813,0,2.31-2.665,3.905-3.091l-0.169,0.813,0.621,0.689c1.796-0.037,2.411,0.451,3.452,0.451h0.651c0.714,0,0.728-0.813,1.302-0.813,0.955,0,2.669,1.648,3.292,2.237,1.415,1.338,1.747,1.168,3.958,1.573,2.232,0.408,2.743-0.089,4.461,1.068,0.795,0.536,2.766,1.613,2.766,2.767v0.651c0,0.759-0.326,0.51-0.326,1.627l0.65,0.326c1.744-0.001,3.959-0.485,5.209,0.159,1.475,0.761,2.142,1.151,3.936,1.596,1.912,0.474,7.936,1.442,7.936,3.287,0,2.113-3.09,5.035-3.09,7.809,0,2.4,0.464,3.343-0.484,5.374-0.469,1.003-1.619,3.023-2.443,3.575-3.367,0-4.838,1.975-6.55,3.699-1.931,1.945-1.358,5.636-3.211,6.876-0.363-0.244-0.57-0.65-0.976-0.65-1.466,0-1.157,1.979-1.487,3.066-0.323,1.064-1.88,1.237-2.741,1.813l-2.763-0.2c-0.107,0.484-0.328,0.699-0.328,1.014,0,0.385,0.928,1.039,1.301,1.139-0.076,0.928-1.463,1.68-2.114,2.115-2.07,0-3.723-0.068-4.371,1.321-0.435,0.931-0.295,1.019-1.383,1.384-0.588,0.199-1.567,0.548-1.567,1.199v0.162c0,0.496,0.075,0.596,0.164,0.978-0.124,0.185-0.665,0.728-0.65,0.813l0.189,1.297c-0.685,0.319-2.141,0.406-2.141,1.305v0.326c0,0.625,0.921,1.013,1.463,1.139,0,2.154-2.277,1.867-2.277,4.718-0.242,0.36-1.372,1.952-1.789,1.952-0.328,0-0.678-0.719-0.814-0.977-0.686,0.058-0.862,0.326-1.464,0.326-0.355,0-0.301-0.146-0.977-0.163v-2.115c0-1.526-1.139-3.644-1.139-5.692,0-0.269,0.652-0.396,0.652-1.303v-1.301c0-1.326-0.489-1.967-0.489-2.928,0-1.026,0.556-1.565,0.646-2.285,0.121-0.981,0.182-1.686,0.295-2.47,0.265-1.843,0.484-3.191,0.786-4.907,0.487-2.766,1.202-7.09,1.202-10.024v-2.766c0-4.173-5.638-4.031-7.526-6.139-0.688-0.767-6.138-7.16-6.138-7.526v-0.977c0-0.507,0.952-1.476,1.236-1.854,0.671-0.888,0.581-0.931,1.041-1.889-0.123-0.183-0.381-0.65-0.651-0.65-0.612,0-0.307,0.106-0.975,0.162,0.69-1.439,0.601-2.148,1.983-3.06,0.777-0.513,2.246-1.465,2.246-2.634v-0.326c0-0.889-0.326-0.9-0.326-1.79v-1.139c0-0.637,0.246-0.018,0.326-0.976,0.95,0.08,0.79,0.488,1.301,0.488h0.163c1.349,0,1.301-1.356,2.114-1.952l0.469,0.349,1.162-0.667,0.612,0.374-0.131,1.247zm0.976-0.976l0.651-2.602c-1.388,0-2.172,1.011-3.09,1.626-0.364-0.086-0.374-0.163-0.813-0.163-0.984,0-0.968,1.953-1.952,1.953-0.27,0-0.899-0.489-1.952-0.489-0.124,0.534-0.651,1.513-0.651,1.627v0.976c0,1.039,0.326,1.238,0.326,2.277,0,1.286-1.746,1.933-2.474,2.569-0.316,0.276-1.918,3.111-1.918,3.288,0,0.38,0.211,0.813,0.651,0.813h0.977c-0.268,1.004-2.115,2.236-2.115,3.579v0.651c0,1.04,4.981,6.593,5.898,7.604,1.407,1.552,2.171,1.84,4.209,2.623,1.296,0.497,3.556,1.569,3.556,3.277v3.252c0,3.565-0.742,6.683-1.155,9.908-0.199,1.542-0.646,3.018-0.802,4.729-0.146,1.613-0.971,3.994-0.971,4.723v0.164c0,1.04,0.65,2.15,0.65,3.416,0,0.838-0.144,1.285-0.813,1.463v0.653c0,2.564,1.302,4.393,1.302,6.669v0.325c0,0.574-0.652,0.656-0.652,0.977,0,0.46,0.374,0.628,0.652,0.818l1.301-0.168h1.301c0.663,0,0.801,0.977,1.464,0.977h0.163c0.269,0,1.157-1.195,1.422-1.506,0.875-1.021,0.416-0.871,0.782-2.147,0.329-1.147,2.35-2.235,2.35-3.505v-0.325c0-0.71-1.105-0.975-1.464-1.464,0.375-0.513,2.212-0.65,2.151-1.309l-0.199-1.457c0.365-0.195,0.976-0.438,0.976-0.977v-0.163c0-0.45-0.126-0.392-0.489-0.488,0.302-1.125,1.439-0.555,2.329-1.577,0.345-0.396,0.97-2.089,1.905-2.039l2.436,0.2c0.52-0.349,2.766-1.835,2.766-2.44v-0.488c0-0.492-0.973-0.852-1.301-1.301,2.447,0,2.967-0.002,4.613-0.918,1.844-1.025,0.732-2.31,1.798-3.855l0.746,1.031c2.241-0.522,2.338-3.666,3.065-5.718,0.623-1.749,2.797-3.699,4.316-4.632,2.938-1.801,2.922,0.826,5.361-3.586,1.54-2.784,1.083-3.839,1.083-7.54,0-0.175,1.372-2.946,1.57-3.309,0.382-0.693,1.521-2.646,1.521-3.524v-0.325c0-2.117-4.508-2.937-6.574-3.35-0.826-0.165-3.373-0.804-3.952-1.09-1.132-0.563-1.963-1.417-3.626-1.417h-0.488c-1.039,0-1.238,0.325-2.276,0.325h-0.651c0-2.994,0.506-2.755-1.596-4.422-1.449-1.15-2.236-1.678-4.572-1.936-2.485-0.274-3.246-0.115-4.938-1.405-0.855-0.653-2.715-2.648-3.859-2.648h-0.975c-0.097,0.413-0.137,0.813-0.651,0.813h-0.325c-1.149,0-1.608-0.489-2.277-0.489l-0.99-0.002,0.177-1.136c-0.448-0.105-0.662-0.327-0.977-0.327-1.503,0.002-1.802,2.176-2.93,2.931" connector-curvature="0" fill="#808285"/>
<path id="path44_2_" d="M63.967,46.355l1.762-3.874,1.232,3.874,4.226,1.673-4.226,1.762-1.673,4.05-1.498-4.05-4.049-1.762,4.226-1.673" connector-curvature="0" fill="#EC2131"/>
</svg>
